#!OML:ASF F:\VICON\USERDATA\INSTALL\rory3\rory3.ASF
:FULLY-SPECIFIED
:DEGREES
1
root 2.56364 14.9658 -43.5285 42.7839 10.7394 6.27287
lowerback 15.4562 -0.580729 3.67707
upperback 4.80227 0.194608 7.29402
thorax -3.57146 0.0877662 5.63037
lowerneck -14.985 -7.72811 -8.44019
upperneck 9.34009 -9.98648 9.94633
head 6.21754 -4.44184 3.50521
rclavicle 4.29375e-014 -7.95139e-016
rhumerus 29.6696 7.80993 -64.0733
rradius 25.182
rwrist 13.381
rhand -29.7696 -63.5408
rfingers 7.12502
rthumb 176.905 -86.502
lclavicle 4.29375e-014 -7.95139e-016
lhumerus 34.3551 -15.0748 36.4701
lradius 31.8885
lwrist -4.65959
lhand -41.3969 -51.692
lfingers 7.12502
lthumb -14.3141 -22.2054
rfemur -98.2196 -0.225857 25.6179
rtibia 66.1392
rfoot -10.5763 -19.6324
rtoes 19.0443
lfemur -20.4709 0.436039 -28.6375
ltibia 31.9988
lfoot -31.8277 17.2688
ltoes -25.718
2
root 2.58525 14.9233 -43.3456 43.7429 9.91542 5.8639
lowerback 16.3879 0.0450154 3.76371
upperback 4.47885 1.12168 7.29854
thorax -4.48209 0.540371 5.42855
lowerneck -14.015 -7.86369 -7.48556
upperneck 8.47411 -10.3203 9.69446
head 5.75073 -4.63437 3.27208
rclavicle 4.77083e-015 -1.43125e-014
rhumerus 29.8814 7.2621 -63.1349
rradius 25.167
rwrist 12.6514
rhand -30.7139 -63.4291
rfingers 7.12502
rthumb 175.993 -86.6288
lclavicle 4.77083e-015 -1.43125e-014
lhumerus 39.0174 -17.1195 33.3844
lradius 31.4164
lwrist -3.59599
lhand -41.3895 -52.8313
lfingers 7.12502
lthumb -14.307 -23.3442
rfemur -99.0988 0.625217 25.6475
rtibia 66.8654
rfoot -10.8363 -19.5145
rtoes 17.9884
lfemur -21.1874 1.02801 -28.698
ltibia 32.5105
lfoot -31.3007 16.6109
ltoes -26.1626
3
root 2.61262 14.8718 -43.1773 45.7534 9.11015 5.31491
lowerback 15.6805 0.896144 3.59009
upperback 4.26763 2.17496 7.61817
thorax -4.41676 1.05562 5.66383
lowerneck -13.2397 -7.98053 -6.6603
upperneck 7.23448 -10.5197 9.18415
head 5.17892 -4.7906 3.00171
rclavicle -3.18055e-014 -2.06736e-014
rhumerus 30.518 6.34962 -61.6936
rradius 25.1406
rwrist 12.5829
rhand -30.9861 -62.7511
rfingers 7.12502
rthumb 175.73 -87.3119
lclavicle -3.18055e-014 -2.06736e-014
lhumerus 41.7411 -17.4022 34.1886
lradius 31.3652
lwrist -5.43183
lhand -43.7768 -50.2892
lfingers 7.12502
lthumb -16.6063 -20.9797
rfemur -101.027 1.59163 25.7732
rtibia 67.309
rfoot -11.6517 -19.1492
rtoes 19.8964
lfemur -23.1978 1.2012 -28.7413
ltibia 33.1047
lfoot -30.3959 16.1823
ltoes -26.1213
4
root 2.63735 14.8307 -42.9953 47.628 8.62443 5.0749
lowerback 15.3226 1.62271 3.48414
upperback 4.027 3.11578 7.94039
thorax -4.57393 1.51788 5.89484
lowerneck -12.4419 -8.24229 -5.89564
upperneck 5.92034 -10.9121 8.84348
head 4.61061 -5.03744 2.78672
rclavicle 6.36111e-015 3.81667e-014
rhumerus 30.8871 4.88986 -60.6215
rradius 25.2667
rwrist 13.4473
rhand -30.4071 -63.8104
rfingers 7.12502
rthumb 176.289 -86.2422
lclavicle 6.36111e-015 3.81667e-014
lhumerus 45.4755 -18.3094 32.887
lradius 31.5281
lwrist -5.16907
lhand -40.2088 -54.6771
lfingers 7.12502
lthumb -13.1691 -25.113
rfemur -102.723 2.22083 25.6489
rtibia 67.7962
rfoot -12.7234 -18.9046
rtoes 21.6655
lfemur -24.8898 0.979918 -28.7106
ltibia 33.5035
lfoot -29.1384 15.6653
ltoes -26.04
5
root 2.66528 14.799 -42.8112 49.333 8.19539 4.94292
lowerback 15.4314 2.337 3.44699
upperback 3.73984 4.09708 8.23957
thorax -5.04446 1.99931 6.04487
lowerneck -12.0327 -8.51565 -4.99702
upperneck 5.05473 -11.3164 8.15828
head 4.21318 -5.28741 2.43599
rclavicle 3.49861e-014 1.90833e-014
rhumerus 30.0861 3.13969 -59.8107
rradius 26.3475
rwrist 14.295
rhand -29.9001 -66.0999
rfingers 7.12502
rthumb 176.779 -83.9447
lclavicle 3.49861e-014 1.90833e-014
lhumerus 50.6769 -19.3551 29.5774
lradius 31.3869
lwrist -2.9505
lhand -38.5359 -56.07
lfingers 7.12502
lthumb -11.5561 -26.4086
rfemur -104.115 2.72533 25.3477
rtibia 68.1659
rfoot -13.1716 -18.8959
rtoes 20.6626
lfemur -26.3348 0.480543 -28.7133
ltibia 33.8161
lfoot -27.9299 15.4647
ltoes -26.3666
6
root 2.6942 14.7853 -42.6141 50.8196 7.96415 4.70394
lowerback 15.7618 3.06126 3.63398
upperback 3.48486 5.15208 8.60976
thorax -5.60724 2.51179 6.11323
lowerneck -11.1849 -8.83768 -4.13826
upperneck 3.64714 -11.7698 7.57948
head 3.58769 -5.58309 2.1603
rclavicle 5.08889e-014 1.11319e-014
rhumerus 30.449 2.34096 -57.5661
rradius 26.5744
rwrist 13.4404
rhand -29.449 -67.7737
rfingers 7.12502
rthumb 177.215 -82.2647
lclavicle 5.08889e-014 1.11319e-014
lhumerus 53.7268 -19.5931 30.6439
lradius 30.9621
lwrist -5.13981
lhand -44.6662 -50.7946
lfingers 7.12502
lthumb -17.4625 -21.5589
rfemur -105.117 3.15911 25.2794
rtibia 68.4826
rfoot -13.8681 -18.7729
rtoes 20.6895
lfemur -27.3912 0.18069 -28.5012
ltibia 33.9157
lfoot -26.8801 14.7628
ltoes -26.2102
7
root 2.72464 14.7805 -42.4098 52.4153 7.87359 4.42967
lowerback 16.0194 3.81695 3.9727
upperback 3.17623 6.28371 9.01507
thorax -6.19135 3.05635 6.10609
lowerneck -10.0598 -9.26133 -3.30442
upperneck 1.85509 -12.3382 6.83963
head 3.07039 -5.96455 2.04664
rclavicle 3.18055e-015 -4.45278e-014
rhumerus 30.7768 1.19759 -55.5005
rradius 26.6311
rwrist 13.2477
rhand -29.4082 -68.2986
rfingers 7.12502
rthumb 177.254 -81.7393
lclavicle 3.18055e-015 -4.45278e-014
lhumerus 57.9536 -20.8102 28.523
lradius 30.809
lwrist -4.59819
lhand -43.4122 -54.3355
lfingers 7.12502
lthumb -16.2553 -24.997
rfemur -106.146 3.54506 25.3162
rtibia 68.709
rfoot -14.0092 -18.7889
rtoes 18.6763
lfemur -28.5422 -0.385132 -28.0486
ltibia 33.9288
lfoot -25.9726 13.3353
ltoes -27.8608
